<svg xmlns="http://www.w3.org/2000/svg" viewBox="0 0 120 120" role="img" aria-labelledby="title desc">
  <title id="title">Nurse avatar</title>
  <desc id="desc">Minimal nurse avatar illustration for the dashboard user badge.</desc>
  <rect width="120" height="120" rx="24" fill="#E8F4FF"/>
  <circle cx="60" cy="60" r="48" fill="#F5FAFF"/>
  <path d="M36 69c0 14 11 25 24 25s24-11 24-25V63H36v6Z" fill="#4B77BE"/>
  <path d="M46 36.5a14 14 0 0 1 28 0v7.5a14 14 0 0 1-28 0v-7.5Z" fill="#2B5BA7"/>
  <path d="M38 47c0-6.5 9-12 22-12s22 5.5 22 12v10c0 10.5-9.4 20-22 20S38 67.5 38 57V47Z" fill="#FFE3C0"/>
  <path d="M40 48c0-5.2 8.6-9.4 20-9.4s20 4.2 20 9.4v3.5c-6.3 5.2-13 7.8-20 7.8s-13.7-2.6-20-7.8V48Z" fill="#2B5BA7" opacity=".9"/>
  <path d="M46 31.5 60 27l14 4.5V42c0 2-2.8 3.7-7 4.6-3.4.7-7.6 1-11 1-3.3 0-7.5-.3-10.9-1C48.7 45.7 46 44 46 42V31.5Z" fill="#F6F9FF" stroke="#2B5BA7" stroke-width="2"/>
  <rect x="57" y="33.5" width="6" height="12" rx="1" fill="#D22F27"/>
  <rect x="53.5" y="37" width="13" height="5" rx="1" fill="#D22F27"/>
  <circle cx="50" cy="56" r="2.5" fill="#2B5BA7"/>
  <circle cx="70" cy="56" r="2.5" fill="#2B5BA7"/>
  <path d="M52 64c2 2.2 5 3.5 8 3.5s6-1.3 8-3.5" fill="none" stroke="#CC5F4A" stroke-width="2" stroke-linecap="round"/>
  <path d="M60 74c-4.5 0-8.5-2-10.5-5.5L46 78c4.5 4.5 9 6.6 14 6.6s9.5-2.1 14-6.6l-3.5-9.5C68.5 72 64.5 74 60 74Z" fill="#D9ECFF"/>
</svg>
